# xmcd
#
# Track frame offsets: 
#        182
#        10172
#        17662
#        32690
#        39732
#        48690
#        56260
#        67392
#        78530
#        88290
#        95422
#        105205
#        113340
#        127565
#
# Disc length: 1857 seconds
#
# Revision: 3
# Processed by: cddbd v1.5.2PL0 Copyright (c) Steve Scherf et al.
# Submitted via: ExactAudioCopy v1.0b4
#
DISCID=a8073f0e
DTITLE=Jim Reeves - 28 Great Country Songs CD 1
DYEAR=1993
DGENRE=Country
TTITLE0=He'll have to go
TTITLE1=Bimbo
TTITLE2=Making believe
TTITLE3=I'm beginning to forget you
TTITLE4=Billy Bayou
TTITLE5=I know one
TTITLE6=If heartaches are the fashion
TTITLE7=Just call me lonesome
TTITLE8=Dear hearts and gentle people
TTITLE9=Everywhere you go
TTITLE10=Home
TTITLE11=Sweet evening breeze
TTITLE12=The highway to nowhere
TTITLE13=I've lived a lot in my time
EXTD=YEAR: 1993
EXTT0=
EXTT1=
EXTT2=
EXTT3=
EXTT4=
EXTT5=
EXTT6=
EXTT7=
EXTT8=
EXTT9=
EXTT10=
EXTT11=
EXTT12=
EXTT13=
PLAYORDER=
